<svg width="30" height="30" viewBox="0 0 30 30" fill="none" xmlns="http://www.w3.org/2000/svg">
<path d="M24.5625 15.7344H3.9375C3.42 15.7344 3 15.3144 3 14.7969C3 14.2794 3.42 13.8594 3.9375 13.8594H24.5625C25.08 13.8594 25.5 14.2794 25.5 14.7969C25.5 15.3144 25.08 15.7344 24.5625 15.7344Z" fill="#E34040"/>
<path d="M24.5625 7.875H3.9375C3.42 7.875 3 7.455 3 6.9375C3 6.42 3.42 6 3.9375 6H24.5625C25.08 6 25.5 6.42 25.5 6.9375C25.5 7.455 25.08 7.875 24.5625 7.875Z" fill="#E34040"/>
<path d="M24.5625 23.2344H3.9375C3.42 23.2344 3 22.8144 3 22.2969C3 21.7794 3.42 21.3594 3.9375 21.3594H24.5625C25.08 21.3594 25.5 21.7794 25.5 22.2969C25.5 22.8144 25.08 23.2344 24.5625 23.2344Z" fill="#E34040"/>
</svg>
