<svg width="169" height="18" viewBox="0 0 169 18" fill="none" xmlns="http://www.w3.org/2000/svg">
<path d="M8.88 3.768C7.552 3.784 6.56 4.144 5.904 4.848C5.248 5.536 4.88 6.52 4.8 7.8L14.832 7.776V10.776H4.776C4.776 11.384 4.84 11.968 4.968 12.528C5.112 13.088 5.392 13.6 5.808 14.064C6.176 14.496 6.608 14.768 7.104 14.88C7.616 14.976 8.136 15.024 8.664 15.024C8.696 15.024 8.728 15.024 8.76 15.024C8.808 15.024 8.848 15.024 8.88 15.024L14.832 15V18H8.712C7.736 18 6.792 17.912 5.88 17.736C4.984 17.56 4.136 17.152 3.336 16.512C2.376 15.728 1.704 14.776 1.32 13.656C0.936 12.52 0.728 11.36 0.696 10.176C0.68 9.92 0.672 9.672 0.672 9.432C0.688 9.192 0.704 8.952 0.72 8.712C0.896 5.992 1.632 3.992 2.928 2.712C4.24 1.432 6.2 0.792 8.808 0.792L14.832 0.767999V3.768H8.88ZM25.8188 3.84H21.6188V8.928H26.0348C26.9148 8.928 27.6748 8.76 28.3148 8.424C28.9548 8.072 29.2748 7.4 29.2748 6.408C29.3068 5.304 28.9628 4.608 28.2428 4.32C27.5388 4.016 26.7308 3.864 25.8188 3.864V3.84ZM17.9948 0.767999H25.8668C25.8828 0.783999 25.8988 0.792 25.9148 0.792C25.9468 0.792 25.9708 0.792 25.9868 0.792C26.2908 0.792 26.5948 0.792 26.8988 0.792C27.2028 0.792 27.5068 0.808 27.8108 0.839999C28.3548 0.871999 28.8908 0.951999 29.4188 1.08C29.9628 1.192 30.4668 1.384 30.9308 1.656C31.7788 2.152 32.3788 2.832 32.7308 3.696C33.0988 4.56 33.2908 5.464 33.3068 6.408C33.3228 7.272 33.1708 8.104 32.8508 8.904C32.5468 9.704 32.0348 10.368 31.3148 10.896C30.7068 11.328 30.0428 11.616 29.3228 11.76C28.6188 11.888 27.8988 11.968 27.1628 12C26.9708 12 26.7788 12 26.5868 12C26.3948 12 26.2028 12 26.0108 12L21.6188 11.976V18H17.9948V0.767999ZM42.0713 10.824V7.776H50.6393V18H42.8393C41.8473 18 40.8873 17.92 39.9593 17.76C39.0313 17.584 38.1673 17.168 37.3673 16.512C36.4073 15.728 35.7353 14.776 35.3513 13.656C34.9673 12.52 34.7593 11.36 34.7273 10.176C34.7113 9.92 34.7033 9.672 34.7033 9.432C34.7193 9.192 34.7353 8.952 34.7513 8.712C34.9273 5.992 35.6633 3.992 36.9593 2.712C38.2713 1.432 40.2313 0.792 42.8393 0.792L50.6393 0.767999V3.744H42.8393C41.1273 3.76 40.0153 4.368 39.5033 5.568C39.0073 6.752 38.7593 8.056 38.7593 9.48C38.7593 9.496 38.7593 9.512 38.7593 9.528C38.7593 9.528 38.7593 9.536 38.7593 9.552C38.7593 11.008 39.0073 12.264 39.5033 13.32C40.0153 14.376 41.1273 14.904 42.8393 14.904L46.9193 14.88V10.824H42.0713ZM77.469 3.84H68.517C67.733 3.856 67.069 4.024 66.525 4.344C65.997 4.648 65.733 5.24 65.733 6.12C65.733 6.792 65.957 7.272 66.405 7.56C66.869 7.848 67.405 7.992 68.013 7.992L72.813 7.968C72.989 7.984 73.173 7.992 73.365 7.992C73.557 7.992 73.749 8 73.941 8.016C74.501 8.048 75.053 8.144 75.597 8.304C76.141 8.448 76.621 8.72 77.037 9.12C77.421 9.472 77.709 9.896 77.901 10.392C78.093 10.888 78.213 11.4 78.261 11.928C78.277 12.088 78.285 12.248 78.285 12.408C78.301 12.552 78.309 12.704 78.309 12.864C78.277 14.864 77.725 16.224 76.653 16.944C75.581 17.648 74.125 18 72.285 18H62.637V14.928H71.709C72.509 14.944 73.197 14.816 73.773 14.544C74.365 14.272 74.605 13.656 74.493 12.696C74.413 11.944 74.133 11.48 73.653 11.304C73.173 11.128 72.605 11.032 71.949 11.016L67.677 10.992C65.901 11.008 64.493 10.656 63.453 9.936C62.429 9.2 61.925 7.88 61.941 5.976C61.973 3.976 62.525 2.616 63.597 1.896C64.685 1.16 66.149 0.792 67.989 0.792L77.469 0.767999V3.84ZM88.1222 3.768C86.7942 3.784 85.8022 4.144 85.1462 4.848C84.4902 5.536 84.1222 6.52 84.0422 7.8L94.0742 7.776V10.776H84.0182C84.0182 11.384 84.0822 11.968 84.2102 12.528C84.3542 13.088 84.6342 13.6 85.0502 14.064C85.4182 14.496 85.8502 14.768 86.3462 14.88C86.8582 14.976 87.3782 15.024 87.9062 15.024C87.9382 15.024 87.9702 15.024 88.0022 15.024C88.0502 15.024 88.0902 15.024 88.1222 15.024L94.0742 15V18H87.9542C86.9782 18 86.0342 17.912 85.1222 17.736C84.2262 17.56 83.3782 17.152 82.5782 16.512C81.6182 15.728 80.9462 14.776 80.5622 13.656C80.1782 12.52 79.9702 11.36 79.9382 10.176C79.9222 9.92 79.9142 9.672 79.9142 9.432C79.9302 9.192 79.9462 8.952 79.9622 8.712C80.1382 5.992 80.8742 3.992 82.1702 2.712C83.4822 1.432 85.4422 0.792 88.0502 0.792L94.0742 0.767999V3.768H88.1222ZM97.2369 0.767999H106.165C106.341 0.783999 106.509 0.792 106.669 0.792C106.845 0.792 107.021 0.8 107.197 0.816C107.853 0.847999 108.493 0.951999 109.117 1.128C109.757 1.304 110.317 1.632 110.797 2.112C111.229 2.528 111.549 3.016 111.757 3.576C111.981 4.136 112.117 4.712 112.165 5.304C112.165 5.416 112.165 5.528 112.165 5.64C112.181 5.752 112.189 5.864 112.189 5.976C112.205 7.176 111.925 8.216 111.349 9.096C110.789 9.96 109.909 10.536 108.709 10.824L113.005 18H108.925L105.133 11.232H100.861V18H97.2369V0.767999ZM105.301 3.84H100.861V8.184H105.301C105.333 8.2 105.365 8.208 105.397 8.208C105.429 8.208 105.461 8.208 105.493 8.208C106.261 8.208 106.957 8.096 107.581 7.872C108.221 7.632 108.533 7.016 108.517 6.024C108.517 5 108.181 4.384 107.509 4.176C106.853 3.968 106.117 3.864 105.301 3.864V3.84ZM120.205 18L112.717 0.767999H116.797L121.981 13.608L127.285 0.767999H131.149L123.949 18H120.205ZM135.881 18H132.089V0.767999H135.881V18ZM146.552 3.72C144.808 3.736 143.68 4.312 143.168 5.448C142.656 6.584 142.376 7.904 142.328 9.408C142.328 9.664 142.328 9.928 142.328 10.2C142.328 10.456 142.336 10.72 142.352 10.992C142.4 11.552 142.504 12.104 142.664 12.648C142.824 13.176 143.088 13.648 143.456 14.064C143.84 14.496 144.28 14.768 144.776 14.88C145.288 14.976 145.808 15.024 146.336 15.024C146.368 15.024 146.4 15.024 146.432 15.024C146.48 15.024 146.52 15.024 146.552 15.024L152.504 15V18H146.384C145.408 18 144.464 17.912 143.552 17.736C142.656 17.56 141.808 17.152 141.008 16.512C140.048 15.728 139.376 14.776 138.992 13.656C138.608 12.52 138.4 11.36 138.368 10.176C138.352 9.92 138.344 9.672 138.344 9.432C138.36 9.192 138.376 8.952 138.392 8.712C138.568 5.992 139.304 3.992 140.6 2.712C141.912 1.432 143.872 0.792 146.48 0.792L152.504 0.767999V3.72H146.552ZM162.278 3.768C160.95 3.784 159.958 4.144 159.302 4.848C158.646 5.536 158.278 6.52 158.198 7.8L168.23 7.776V10.776H158.174C158.174 11.384 158.238 11.968 158.366 12.528C158.51 13.088 158.79 13.6 159.206 14.064C159.574 14.496 160.006 14.768 160.502 14.88C161.014 14.976 161.534 15.024 162.062 15.024C162.094 15.024 162.126 15.024 162.158 15.024C162.206 15.024 162.246 15.024 162.278 15.024L168.23 15V18H162.11C161.134 18 160.19 17.912 159.278 17.736C158.382 17.56 157.534 17.152 156.734 16.512C155.774 15.728 155.102 14.776 154.718 13.656C154.334 12.52 154.126 11.36 154.094 10.176C154.078 9.92 154.07 9.672 154.07 9.432C154.086 9.192 154.102 8.952 154.118 8.712C154.294 5.992 155.03 3.992 156.326 2.712C157.638 1.432 159.598 0.792 162.206 0.792L168.23 0.767999V3.768H162.278Z" fill="#2BCCDB"/>
</svg>
