<svg width="134" height="134" viewBox="0 0 134 134" fill="none" xmlns="http://www.w3.org/2000/svg">
<g clip-path="url(#clip0_423_6)">
<path d="M65.8673 116.038C65.8673 119.295 64.4043 123.75 62.3108 127.871C60.8849 130.679 62.9734 134 66.1221 134L103.823 134L103.823 96.5734C103.824 93.4277 107.12 91.4191 109.949 92.7966C114.071 94.8052 118.528 96.1577 121.786 96.1577C129.722 96.1577 134 89.8842 134 82.1457C134 74.4072 129.722 68.1337 121.786 68.1337C118.529 68.1337 114.074 69.5966 109.952 71.6901C107.145 73.1161 103.825 71.0281 103.824 67.8799L103.824 30.1772L66.1216 30.1772C62.9734 30.1767 60.8849 26.8556 62.3108 24.0486C64.4043 19.927 65.8673 15.4722 65.8673 12.215C65.8673 4.27819 59.5938 0.000240888 51.8548 0.00024055C44.1158 0.000240212 37.8428 4.27819 37.8428 12.2145C37.8428 15.4727 39.1953 19.929 41.2039 24.0516C42.5819 26.8796 40.5733 30.1767 37.4271 30.1772L0.000242822 30.1772L7.18513 30.1772L0.000242822 30.1772L0.000241174 67.8799C0.00124812 71.0281 3.32188 73.1156 6.12887 71.6901C10.2504 69.5966 14.7053 68.1337 17.9624 68.1337C25.8988 68.1337 30.1767 74.4072 30.1767 82.1457C30.1767 89.8847 25.8988 96.1577 17.9624 96.1577C14.7043 96.1577 10.2479 94.8052 6.12538 92.7966C3.29739 91.4186 0.000255316 93.4271 -0.000248362 96.5734L-0.000249998 134L37.4261 134C40.5723 134 42.5814 130.703 41.2034 127.875C39.1948 123.752 37.8423 119.296 37.8423 116.038C37.8423 108.101 44.1158 103.823 51.8543 103.823C59.5938 103.823 65.8673 108.101 65.8673 116.038Z" fill="#F7F7FB"/>
</g>
<mask id="mask0_423_6" style="mask-type:alpha" maskUnits="userSpaceOnUse" x="0" y="0" width="135" height="135">
<path d="M65.8675 116.038C65.8675 119.295 64.4046 123.75 62.3111 127.871C60.8851 130.679 62.9736 134 66.1224 134L103.823 134L103.823 96.5734C103.824 93.4277 107.121 91.4191 109.949 92.7966C114.072 94.8052 118.528 96.1577 121.786 96.1577C129.723 96.1577 134 89.8842 134 82.1457C134 74.4072 129.723 68.1337 121.786 68.1337C118.529 68.1337 114.074 69.5966 109.953 71.6901C107.146 73.1161 103.825 71.0281 103.824 67.8799L103.824 30.1772L66.1219 30.1772C62.9736 30.1767 60.8851 26.8556 62.3111 24.0486C64.4046 19.927 65.8675 15.4722 65.8675 12.215C65.8675 4.27819 59.594 0.000240888 51.855 0.00024055C44.1161 0.000240212 37.843 4.27819 37.843 12.2145C37.843 15.4727 39.1956 19.929 41.2041 24.0516C42.5821 26.8796 40.5736 30.1767 37.4273 30.1772L0.000486962 30.1772L7.18537 30.1772L0.000486962 30.1772L0.000485314 67.8799C0.00149226 71.0281 3.32213 73.1156 6.12912 71.6901C10.2507 69.5966 14.7055 68.1337 17.9627 68.1337C25.899 68.1337 30.177 74.4072 30.177 82.1457C30.177 89.8847 25.899 96.1577 17.9627 96.1577C14.7045 96.1577 10.2482 94.8052 6.12562 92.7966C3.29763 91.4186 0.000499456 93.4271 -4.22135e-06 96.5734L-5.85733e-06 134L37.4263 134C40.5726 134 42.5816 130.703 41.2036 127.875C39.1951 123.752 37.8425 119.296 37.8425 116.038C37.8425 108.101 44.116 103.823 51.8545 103.823C59.594 103.823 65.8675 108.101 65.8675 116.038Z" fill="#F7F7FB"/>
</mask>
<g mask="url(#mask0_423_6)">
<rect y="-7" width="141" height="141" fill="#BEECF0"/>
</g>
<defs>
<clipPath id="clip0_423_6">
<rect width="134" height="134" fill="white"/>
</clipPath>
</defs>
</svg>
