<svg width="134" height="134" viewBox="0 0 134 134" fill="none" xmlns="http://www.w3.org/2000/svg">
<g clip-path="url(#clip0_423_3)">
<path d="M65.8673 116.038C65.8673 119.295 64.4043 123.75 62.3108 127.871C60.8849 130.679 62.9734 134 66.1221 134L103.823 134L103.823 96.5737C103.824 93.4279 107.12 91.4193 109.949 92.7969C114.071 94.8054 118.528 96.158 121.786 96.158C129.722 96.158 134 89.8844 134 82.1459C134 74.4075 129.722 68.1339 121.786 68.1339C118.529 68.1339 114.074 69.5969 109.952 71.6904C107.145 73.1164 103.825 71.0284 103.824 67.8801L103.824 30.1775L66.1216 30.1775C62.9734 30.177 60.8849 26.8558 62.3108 24.0488C64.4043 19.9273 65.8673 15.4725 65.8673 12.2153C65.8673 4.27844 59.5938 0.000485029 51.8548 0.000484691C44.1158 0.000484352 37.8428 4.27843 37.8428 12.2148C37.8428 15.473 39.1953 19.9293 41.2039 24.0518C42.5819 26.8798 40.5733 30.177 37.4271 30.1775L0.000242822 30.1775L7.18513 30.1775L0.000242822 30.1775L0.000241174 67.8801C0.00124812 71.0284 3.32188 73.1159 6.12887 71.6904C10.2504 69.5969 14.7053 68.1339 17.9624 68.1339C25.8988 68.1339 30.1767 74.4075 30.1767 82.1459C30.1767 89.8849 25.8988 96.1579 17.9624 96.1579C14.7043 96.1579 10.2479 94.8054 6.12538 92.7968C3.29739 91.4188 0.000255316 93.4274 -0.000248362 96.5736L-0.000249998 134L37.4261 134C40.5723 134 42.5814 130.703 41.2034 127.875C39.1948 123.752 37.8423 119.296 37.8423 116.038C37.8423 108.101 44.1158 103.823 51.8543 103.823C59.5938 103.823 65.8673 108.101 65.8673 116.038Z" fill="#F7F7FB"/>
</g>
<mask id="mask0_423_3" style="mask-type:alpha" maskUnits="userSpaceOnUse" x="-1" y="0" width="136" height="135">
<path d="M65.8673 116.038C65.8673 119.295 64.4043 123.75 62.3108 127.871C60.8849 130.679 62.9734 134 66.1221 134L103.823 134L103.823 96.5737C103.824 93.4279 107.12 91.4193 109.949 92.7969C114.071 94.8054 118.528 96.158 121.786 96.158C129.722 96.158 134 89.8844 134 82.1459C134 74.4075 129.722 68.1339 121.786 68.1339C118.529 68.1339 114.074 69.5969 109.952 71.6904C107.145 73.1164 103.825 71.0284 103.824 67.8801L103.824 30.1775L66.1216 30.1775C62.9734 30.177 60.8849 26.8558 62.3108 24.0488C64.4043 19.9273 65.8673 15.4725 65.8673 12.2153C65.8673 4.27844 59.5938 0.000485029 51.8548 0.000484691C44.1158 0.000484352 37.8428 4.27843 37.8428 12.2148C37.8428 15.473 39.1953 19.9293 41.2039 24.0518C42.5819 26.8798 40.5733 30.177 37.4271 30.1775L0.000242822 30.1775L7.18513 30.1775L0.000242822 30.1775L0.000241174 67.8801C0.00124812 71.0284 3.32188 73.1159 6.12887 71.6904C10.2504 69.5969 14.7053 68.1339 17.9624 68.1339C25.8988 68.1339 30.1767 74.4075 30.1767 82.1459C30.1767 89.8849 25.8988 96.1579 17.9624 96.1579C14.7043 96.1579 10.2479 94.8054 6.12538 92.7968C3.29739 91.4188 0.000255316 93.4274 -0.000248362 96.5736L-0.000249998 134L37.4261 134C40.5723 134 42.5814 130.703 41.2034 127.875C39.1948 123.752 37.8423 119.296 37.8423 116.038C37.8423 108.101 44.1158 103.823 51.8543 103.823C59.5938 103.823 65.8673 108.101 65.8673 116.038Z" fill="#F7F7FB"/>
</mask>
<g mask="url(#mask0_423_3)">
<rect y="30.0002" width="33" height="104" fill="#BEECF0"/>
</g>
<defs>
<clipPath id="clip0_423_3">
<rect width="134" height="134" fill="white" transform="translate(0 0.000244141)"/>
</clipPath>
</defs>
</svg>
